<?xml version="1.0" encoding="UTF-8" standalone="no"?>
<svg
   xmlns:dc="http://purl.org/dc/elements/1.1/"
   xmlns:cc="http://creativecommons.org/ns#"
   xmlns:rdf="http://www.w3.org/1999/02/22-rdf-syntax-ns#"
   xmlns:svg="http://www.w3.org/2000/svg"
   xmlns="http://www.w3.org/2000/svg"
   xmlns:sodipodi="http://sodipodi.sourceforge.net/DTD/sodipodi-0.dtd"
   xmlns:inkscape="http://www.inkscape.org/namespaces/inkscape"
   width="300"
   height="300"
   version="1.1"
   id="svg15"
   sodipodi:docname="Square2.svg"
   inkscape:version="0.92.4 (5da689c313, 2019-01-14)">
  <metadata
     id="metadata21">
    <rdf:RDF>
      <cc:Work
         rdf:about="">
        <dc:format>image/svg+xml</dc:format>
        <dc:type
           rdf:resource="http://purl.org/dc/dcmitype/StillImage" />
      </cc:Work>
    </rdf:RDF>
  </metadata>
  <defs
     id="defs19" />
  <sodipodi:namedview
     pagecolor="#ffffff"
     bordercolor="#666666"
     borderopacity="1"
     objecttolerance="10"
     gridtolerance="10"
     guidetolerance="10"
     inkscape:pageopacity="0"
     inkscape:pageshadow="2"
     inkscape:window-width="1920"
     inkscape:window-height="1017"
     id="namedview17"
     showgrid="false"
     inkscape:zoom="1.8101934"
     inkscape:cx="171.07512"
     inkscape:cy="115.95707"
     inkscape:window-x="1912"
     inkscape:window-y="-8"
     inkscape:window-maximized="1"
     inkscape:current-layer="svg15" />
  <!-- Created with Method Draw - http://github.com/duopixel/Method-Draw/ -->
  <path
     style="fill:#000000;fill-opacity:0.50196078;stroke:#000000;stroke-width:0"
     d="M 295.35742 11.142578 C 298.28289 15.349453 300 20.465481 300 26 L 300 274 C 300 288.404 288.404 300 274 300 L 26 300 C 20.465481 300 15.349453 298.28289 11.142578 295.35742 C 15.830857 302.09926 23.630519 306.5 32.5 306.5 L 280.5 306.5 C 294.904 306.5 306.5 294.904 306.5 280.5 L 306.5 32.5 C 306.5 23.630519 302.09926 15.830858 295.35742 11.142578 z "
     id="svg_1-3" />
  <path
     style="fill:#ffffff;fill-opacity:1;stroke:#000000;stroke-width:0"
     d="m 26,0 h 248 c 14.404,0 26,11.596 26,26 v 248 c 0,14.404 -11.596,26 -26,26 H 26 C 11.596001,300 5e-7,288.404 5e-7,274 V 26 C 5e-7,11.596 11.596001,0 26,0 Z"
     id="path4663"
     inkscape:connector-curvature="0" />
</svg>
