<?xml version="1.0" encoding="UTF-8" standalone="no"?>
<!-- Generator: Adobe Illustrator 16.0.0, SVG Export Plug-In . SVG Version: 6.00 Build 0)  -->

<svg
   xmlns:dc="http://purl.org/dc/elements/1.1/"
   xmlns:cc="http://creativecommons.org/ns#"
   xmlns:rdf="http://www.w3.org/1999/02/22-rdf-syntax-ns#"
   xmlns:svg="http://www.w3.org/2000/svg"
   xmlns="http://www.w3.org/2000/svg"
   xmlns:sodipodi="http://sodipodi.sourceforge.net/DTD/sodipodi-0.dtd"
   xmlns:inkscape="http://www.inkscape.org/namespaces/inkscape"
   version="1.1"
   id="Capa_1"
   x="0px"
   y="0px"
   width="44.976px"
   height="44.976px"
   viewBox="0 0 44.976 44.976"
   style="enable-background:new 0 0 44.976 44.976;"
   xml:space="preserve"
   sodipodi:docname="circular-refresh-arrow.svg"
   inkscape:version="0.92.4 (5da689c313, 2019-01-14)"><metadata
   id="metadata41"><rdf:RDF><cc:Work
       rdf:about=""><dc:format>image/svg+xml</dc:format><dc:type
         rdf:resource="http://purl.org/dc/dcmitype/StillImage" /><dc:title></dc:title></cc:Work></rdf:RDF></metadata><defs
   id="defs39" /><sodipodi:namedview
   pagecolor="#ffffff"
   bordercolor="#666666"
   borderopacity="1"
   objecttolerance="10"
   gridtolerance="10"
   guidetolerance="10"
   inkscape:pageopacity="0"
   inkscape:pageshadow="2"
   inkscape:window-width="918"
   inkscape:window-height="530"
   id="namedview37"
   showgrid="false"
   inkscape:zoom="5.2472428"
   inkscape:cx="22.488001"
   inkscape:cy="22.488001"
   inkscape:window-x="2266"
   inkscape:window-y="291"
   inkscape:window-maximized="0"
   inkscape:current-layer="Capa_1" />
<g
   id="g4"
   style="fill:#ffffff">
	<path
   d="M1.105,23.621c0,11.412,10.488,21.354,21.905,21.354c8.146,0,15.184-3.738,18.554-10.577   c1.36-2.751-4.247-3.941-5.527-1.563c-2.621,4.712-7.504,5.508-13.026,5.508c-8.31,0-15.441-6.816-15.441-14.722   c0-8.179,7.26-14.935,15.441-14.935c2.792,0,4.587,0.615,5.745,1.322c1.414,0.863,1.186,3.055,0.091,4.299   c-2.058,2.339-4.569,5.32-4.569,5.32c-2.388,2.388,0.314,2.35,0.314,2.35l14.89,0.008c1.657,0.001,3.638,0.242,4.104-0.196   c0.47-0.44,0.217-2.435,0.219-4.092l0.023-16.585c-0.029-2.468-2.42-0.058-2.42-0.058L37.71,4.868   c-1.153,1.189-3.037,1.185-4.432,0.289c-2.092-1.345-5.556-2.911-10.271-2.835C11.594,2.322,1.105,12.195,1.105,23.621z"
   id="path2"
   style="fill:#ffffff" />
</g>
<g
   id="g6">
</g>
<g
   id="g8">
</g>
<g
   id="g10">
</g>
<g
   id="g12">
</g>
<g
   id="g14">
</g>
<g
   id="g16">
</g>
<g
   id="g18">
</g>
<g
   id="g20">
</g>
<g
   id="g22">
</g>
<g
   id="g24">
</g>
<g
   id="g26">
</g>
<g
   id="g28">
</g>
<g
   id="g30">
</g>
<g
   id="g32">
</g>
<g
   id="g34">
</g>
</svg>